<svg version="1.1" id="_x31_0" xmlns="http://www.w3.org/2000/svg" xmlns:xlink="http://www.w3.org/1999/xlink" x="0px" y="0px" viewBox="0 0 512 512" style="width: 256px; height: 256px; opacity: 1;" xml:space="preserve">
<style type="text/css">
	.st0{fill:#e34d07;}
</style>
<g>
	<path class="st0" d="M314.562,96.76c2.602,0.586,5.215-0.949,5.969-3.508l8.559-29.062c0.824-2.805-0.891-5.726-3.746-6.367
		l-3.82-0.863c-2.852-0.645-5.657,1.258-6.114,4.149l-4.738,29.922C310.258,93.667,311.958,96.175,314.562,96.76z"></path>
	<path class="st0" d="M254.985,104.573c1.57,2.156,4.546,2.726,6.801,1.301c2.258-1.426,3.019-4.36,1.738-6.703l-14.497-26.602
		c-1.398-2.566-4.675-3.418-7.152-1.856l-3.309,2.094c-2.473,1.562-3.113,4.89-1.39,7.254L254.985,104.573z"></path>
	<path class="st0" d="M365.023,129.374l26.602-14.496c2.57-1.402,3.422-4.68,1.86-7.153l-2.094-3.313
		c-1.562-2.468-4.89-3.109-7.258-1.39l-24.508,17.813c-2.156,1.566-2.726,4.542-1.304,6.801
		C359.75,129.889,362.68,130.651,365.023,129.374z"></path>
	<path class="st0" d="M146.668,224.842c-12.535,0-22.699,10.165-22.699,22.699c0,12.539,10.164,22.703,22.699,22.703
		s22.699-10.164,22.699-22.703C169.367,235.007,159.203,224.842,146.668,224.842z"></path>
	<path class="st0" d="M502.203,267.713l-0.645-0.847c-0.004,0.004-0.008,0.004-0.011,0.007l-0.094-0.125
		c-3.351,2.958-7.105,5.328-11.094,7.137c-0.094,0.039-0.183,0.086-0.274,0.129c-1.965,0.871-3.98,1.606-6.038,2.199
		c-0.098,0.031-0.196,0.055-0.297,0.082c-10.27,2.898-21.446,2.301-31.234-1.707c-0.305-0.137-0.626-0.234-0.93-0.375
		c9.329-12.199,12.07-28.363,7.055-44.082c-2.992-9.371-11.324-15.726-21.313-16.367c-9.988,0.641-18.32,6.996-21.312,16.367
		c-4.742,14.855-2.477,30.066,5.648,41.992c0.473,0.711,0.89,1.446,1.402,2.137c-4.176,1.812-8.645,2.949-13.191,3.48
		c-0.274,0.024-0.527,0.106-0.805,0.126c-0.942-21.906-7.278-42.434-17.699-60.305c-10.164-17.531-24.285-32.406-41.102-43.535
		c-0.27-0.18-0.515-0.386-0.789-0.566c-0.481-0.313-0.996-0.566-1.481-0.871c-20.351-12.938-44.438-20.492-70.274-20.492h-56.804
		c-15.328-18.32-48.981-52.934-93.422-66.554c-3.738-1.149-7.769-0.426-10.867,1.949c-3.07,2.379-4.835,6.118-4.675,9.988
		c0.882,22.891,4.14,45.031,9.695,65.942c-23.02,10.282-42.973,27.188-56.886,48.418c-8.196,12.5-30.446,19.738-47.618,21.179
		c-5.367,0.426-10.281,3.176-13.484,7.504c-3.207,4.351-4.383,9.883-3.234,15.172l11.484,52.746
		c3.446,15.809,17.305,26.918,33.68,27c6.218,0.028,9.133,0.934,10.226,1.387c11.484,33.465,24.367,54.297,60.957,68.398l8,27.238
		c0,12.5,10.176,22.702,22.699,22.702h24.039c12.523,0,22.699-10.202,22.699-22.702l8-17.36h56.098v17.36
		c0,12.5,10.203,22.702,22.699,22.702h24.035c12.527,0,22.703-10.202,22.703-22.702l8-27.348
		c24.578-10.16,42.578-27.25,54.664-48.461c0.07-0.129,0.148-0.25,0.218-0.379c1.301-2.297,2.523-4.644,3.684-7.035
		c0.102-0.21,0.206-0.414,0.308-0.625c1.164-2.434,2.25-4.91,3.274-7.43c0.07-0.172,0.145-0.336,0.211-0.504
		c5.621-14.015,9.133-29.293,10.562-45.278c7.652-0.511,15.172-2.402,22.098-5.601c2.183-0.95,4.332-2.039,6.446-3.215
		c0.038,0.016,0.074,0.039,0.113,0.058c0.106-0.054,0.211-0.082,0.293-0.164c9.829,6.062,21.313,9.082,32.879,9.082
		c14.981,0,30.016-5.074,41.5-15.278L502.203,267.713z M384.77,292.628c-1.758,20.942-7.652,40.469-18.098,56.546
		c-0.18,0.27-0.348,0.547-0.527,0.813c-1.078,1.625-2.219,3.195-3.39,4.742c-0.332,0.434-0.653,0.874-0.989,1.305
		c-1.129,1.434-2.312,2.82-3.523,4.183c-0.39,0.438-0.774,0.886-1.168,1.317c-1.317,1.422-2.691,2.797-4.106,4.136
		c-0.289,0.278-0.57,0.563-0.867,0.836c-8.844,8.141-19.539,14.618-32.214,18.902c-4.887,1.657-8.176,6.246-8.176,11.375l-8,34.348
		h-21.363v-28.043c0-6.653-5.367-12.02-12.02-12.02h-80.133c-6.621,0-12.015,5.367-12.015,12.02l-8,28.043h-21.367l-8-34.348
		c0-5.129-3.285-9.718-8.172-11.375c-35.117-11.886-44.613-27.965-54.438-57.367c-2.511-7.531-10.179-16.531-32.476-16.637
		c-5.047-0.031-9.297-3.339-10.336-8.094l-9.504-43.671l-0.715-3.336c21.79-2.942,47.344-12.418,59.703-31.297
		c13.118-20.004,32.746-35.305,55.258-43.051c6.145-2.114,9.485-8.734,7.559-14.93c-4.34-14.019-7.442-28.742-9.414-43.946
		c-0.32-2.656-0.676-5.297-0.91-7.98c33.551,15.793,58.406,43.871,68.438,56.492c2.297,2.883,5.742,4.539,9.402,4.539h62.519
		c0.234,0,0.462,0.015,0.696,0.019v61.461c0,7.863,6.374,14.242,14.242,14.242c7.867,0,14.246-6.379,14.246-14.242v-45.297
		l0.043-12.121c42.136,11.934,73.851,48.98,77.789,93.898c0.293,3.125,0.426,6.305,0.426,9.508
		C385.168,286.647,385.035,289.636,384.77,292.628z M441.852,258.041c-1.141,2.207-2.614,4.29-4.399,6.219
		c-0.038-0.051-0.082-0.102-0.125-0.156c-0.035,0.042-0.074,0.082-0.106,0.121l-0.019-0.023l-0.211,0.254
		c-6.664-7.746-8.874-18.23-5.328-28.606c1.313-3.898,3.394-4.461,5.664-4.515c2.27,0.054,4.352,0.617,5.66,4.515
		C445.633,243.58,445.07,251.37,441.852,258.041z"></path>
</g>
</svg>
