<svg version="1.1" id="_x31_0" xmlns="http://www.w3.org/2000/svg" xmlns:xlink="http://www.w3.org/1999/xlink" x="0px" y="0px" viewBox="0 0 512 512" style="width: 256px; height: 256px; opacity: 1;" xml:space="preserve">
<style type="text/css">
	.st0{fill:#374149;}
</style>
<g>
	<path class="st0" d="M510.74,436.375c-4.808-16.062-29.71-100.234-53.762-178.434c-13.113-42.594-23.82-76.648-31.965-101.164
		c-4.652-14.273-8.531-25.679-11.637-33.828c-4.886-13.183-7.836-19.934-14.117-24.59l-29.793-23.894
		c-0.234-5.355-2.481-10.551-6.359-14.43c-6.594-6.594-29.016-28.551-41.508-35.297c-3.18-1.711-6.824-2.641-10.473-2.641
		c-3.336,0-6.668,0.699-9.621,2.172c-0.618,0.312-1.317,0.699-1.938,1.09h-87.121c-0.622-0.39-1.317-0.778-1.942-1.09
		c-3.024-1.473-6.282-2.172-9.618-2.172c-3.648,0-7.293,0.93-10.472,2.641c-12.493,6.746-34.91,28.703-41.504,35.297
		c-3.883,3.878-6.133,9.074-6.442,14.43L112.99,98.204c-6.515,4.812-9.542,11.562-14.43,24.746
		c-2.949,7.993-6.906,19.394-11.637,33.828c-8.144,24.75-18.851,58.805-31.965,101.164C30.913,336.293,6.01,420.312,1.276,436.375
		c-2.402,8.218-1.394,17.145,2.871,24.59c4.191,7.371,11.406,12.879,19.707,14.894c26.218,6.516,49.262,11.254,60.586,13.504
		c2.019,0.383,4.035,0.539,6.129,0.539c14.82,0,27.778-10.473,30.801-24.98l1.152-5.84l0.012-0.055
		c9.547,2.25,48.953,10.938,87.664,10.938c29.09,0,52.211-5.042,68.89-14.973c14.043,9.93,31.73,14.973,52.676,14.973
		c23.711,0,45.859-6.507,56.558-10.164c0.371-0.121,0.813-0.258,1.164-0.371l1.16,5.493c3.027,14.507,15.981,24.98,30.801,24.98
		c2.016,0,4.031-0.156,6.051-0.539c11.402-2.25,34.445-6.988,60.59-13.504c8.301-2.015,15.515-7.445,19.781-14.894
		C512.061,453.52,513.146,444.593,510.74,436.375z M478.15,443.98c-23.43,5.734-43.98,10.004-55.23,12.25l-39.797-190.07
		l-16.836,2.332l3.219,50.23l0.183,3.066h-60.347v23.89c0,13.27,10.785,23.977,23.972,23.977h39.41l3.805,58.878
		c-17.457,5.821-69.746,19.938-88.985-12.644l-1.941-3.336V326.52c0.078-1.473-0.078-2.946-0.465-4.422
		c-0.157-0.543-3.57-13.032-8.766-32.664l79.75-147.786c2.485-4.73,2.25-10.394-0.774-14.82l-8.656-12.789l-1.711-2.578l3.074-1.23
		c2.558-1.008,4.809-2.797,6.359-5.047l23.43,18.778c8.325,15.426,54.59,165.871,98.203,312.914
		C476.748,439.242,477.451,441.613,478.15,443.98z M373.889,334.59v22.266h-40.574c-6.129,0-11.171-4.965-11.171-11.176v-11.09
		h51.59H373.889z M203.448,57.399c0.234,1.008,0.386,2.094,0.621,3.102c0.309,1.554,0.699,3.183,1.086,4.886
		c0.078,0.465,0.157,0.856,0.234,1.321c9.543,43.836,28.16,116.527,43.211,173.781c1.32,4.809,2.48,9.461,3.722,13.961
		c1.242,4.813,2.485,9.386,3.649,13.886c1.859,6.906,3.566,13.422,5.195,19.321c0.934,3.566,1.785,6.902,2.641,10.008
		c1.007,3.644,1.859,6.98,2.714,10.003c2.094,7.914,3.645,13.574,4.422,16.294c0.113,0.566,0.214,0.957,0.297,1.246
		c0,0.039-0.008,0.078-0.016,0.114l-7.11-13.074l-4.113-7.527l-4.031-7.527l-5.122-9.535l-4.965-9.156l-4.886-9.078L182.811,161.59
		l-14.43-26.766l16.683-24.55l3.66-5.325l-0.031-0.015l0.09-0.137l-19.546-7.758l-0.234-1.008l-2.094-9.309l-2.016-9.309
		l-0.465-1.863c0,0,25.754-25.679,36.461-31.5c0.23,1.246,0.465,2.489,0.699,3.883C202.131,50.805,202.749,53.984,203.448,57.399z
		 M282.416,73.957c-4.781,21.133-11.531,48.957-20.144,82.871c-2.031,7.844-4.137,15.898-6.375,24.34
		c-11.598-45.246-20.5-81.234-26.382-107.246h43.476L282.416,73.957z M270.975,269.262c-2.391-8.879-4.938-18.598-7.637-28.774
		c15.05-57.254,33.75-129.945,43.214-173.781c0.074-0.313,0.153-0.618,0.23-0.93c0.465-2.02,0.856-3.879,1.242-5.742
		c0.156-0.93,0.309-1.786,0.543-2.637c0.695-3.414,1.32-6.594,1.859-9.465c0.234-1.394,0.469-2.637,0.699-3.883
		c10.707,5.821,36.386,31.5,36.386,31.5l-0.386,1.863l-2.098,9.309l-2.016,9.309l-0.234,1.008l-15.992,6.347l-3.426,1.321
		l0.019,0.031l-0.148,0.058l20.324,30.027l-42.05,78.031L270.975,269.262z M33.784,443.968
		c44.222-149.262,91.851-304.335,100.386-320.007l23.43-18.778c1.551,2.25,3.722,4.039,6.359,5.047l2.672,1.07l0.418,0.195
		l-10.458,15.332c-2.949,4.426-3.262,10.09-0.699,14.82l76.027,140.886l3.723,6.899l4.89,9.156l4.961,9.078l2.406,4.578l4.035,7.45
		l4.035,7.523l2.945,5.355c0.543,1.082,1.242,2.016,2.02,2.867l0.386,0.778l11.481,21.258v58.414
		c-18.387,31.113-99.61,20.25-137.313,11.87l3.723-58.105h39.488c7.758,0,14.738-3.727,19.086-9.543
		c3.024-4.035,4.809-9,4.809-14.434v-23.89h-56.965l-3.316-0.008l3.414-53.289l-16.91-2.332L89.018,456.23
		c-11.09-2.214-31.246-6.402-54.27-12.019C34.425,444.128,34.112,444.051,33.784,443.968z M189.795,334.59v11.09
		c0,0.547,0,1.012-0.078,1.477c-0.699,5.507-5.43,9.699-11.015,9.699h-40.574V334.59h51.512H189.795z" style="fill: rgb(0, 0, 0);"></path>
	<path class="st0" d="M246.042,373.223c7.214,0,13.031-5.817,13.031-13.035c0-3.797-1.551-7.137-4.114-9.543
		c-2.324-2.168-5.508-3.488-8.918-3.488c-7.215,0-13.035,5.82-13.035,13.031c0,2.562,0.774,5.046,2.094,7.062
		C237.35,370.816,241.463,373.223,246.042,373.223z" style="fill: rgb(0, 0, 0);"></path>
</g>
</svg>
