<svg version="1.1" id="_x31_0" xmlns="http://www.w3.org/2000/svg" xmlns:xlink="http://www.w3.org/1999/xlink" x="0px" y="0px" viewBox="0 0 512 512" style="width: 256px; height: 256px; opacity: 1;" xml:space="preserve">
<style type="text/css">
	.st0{fill:#374149;}
</style>
<g>
	<path class="st0" d="M459.772,235.44L459.772,235.44h-0.151c0,11.24-3.845,22.113-10.946,32.247
		c-9.983,14.423-26.554,27.292-47.854,37.94c-6.142,3.033-12.574,5.845-19.452,8.506c-14.497,5.624-30.622,10.211-47.854,13.685
		c-6.363,1.33-12.799,2.441-19.452,3.4c-15.239,2.22-31.288,3.628-47.858,3.996c-3.326,0.077-6.804,0.146-10.207,0.146
		c-3.106,0-6.209,0-9.245-0.146c-16.57-0.298-32.618-1.625-47.854-3.849c-6.583-0.959-13.09-2.066-19.378-3.323
		c-17.236-3.403-33.358-7.99-47.928-13.538c-6.807-2.587-13.313-5.399-19.378-8.354c-21.154-10.354-37.646-23.006-47.931-37.058
		c-7.69-10.502-11.906-21.893-11.906-33.651h-7.2h-0.045l0,0h-0.15v69.522c0,14.718,5.841,28.774,16.493,41.568
		c11.685,14.053,29.067,26.627,50.739,36.908c6.138,2.886,12.571,5.62,19.378,8.212c14.644,5.395,30.692,9.91,47.928,13.31
		c6.289,1.257,12.722,2.367,19.378,3.33c15.309,2.221,31.361,3.547,47.854,3.845c3.11,0.151,6.138,0.151,9.245,0.151
		c3.403,0,6.807-0.078,10.207-0.151c16.497-0.367,32.545-1.775,47.858-3.995c3.238-0.466,6.307-1.106,9.472-1.654
		c0.434-0.078,0.868-0.151,1.298-0.228c2.886-0.511,5.874-0.923,8.682-1.518c17.158-3.404,33.21-7.987,47.854-13.46
		c6.804-2.592,13.31-5.33,19.452-8.359c20.118-9.615,36.537-21.301,47.854-34.32c11.835-13.31,18.342-28.104,18.342-43.638V235.44
		h-7.201H459.772z M266.206,389.941v-32.538c16.497-0.371,32.471-1.624,47.858-3.771v32.247
		c-14.946,2.282-30.846,3.679-47.622,4.054C266.363,389.934,266.286,389.937,266.206,389.941z M333.515,382.442v-31.994
		c16.938-3.106,32.986-7.395,47.854-12.648v30.251c-12.982,5.359-27.814,9.969-44.13,13.567
		C335.989,381.884,334.779,382.193,333.515,382.442z M400.821,330.038c16.864-7.473,31.729-16.422,44.01-26.557v1.482
		c0,15.467-10.844,31.247-30.193,45.002c-4.245,2.999-8.766,5.929-13.817,8.682V330.038z M112.146,359.286
		c-28.726-15.6-44.972-35.254-44.972-54.323v-1.482c12.498,10.354,27.737,19.456,45.042,26.998v19.639L112.146,359.286z
		 M179.492,382.692c-17.813-3.624-33.854-8.506-47.898-14.269v-30.251c14.865,5.179,30.99,9.395,47.928,12.502v26.85
		L179.492,382.692z M246.754,389.945c-16.864-0.294-32.838-1.698-47.854-3.918v-32.247c15.382,2.07,31.434,3.326,47.854,3.624
		v32.104V389.945z" style="fill: rgb(0, 0, 0);"></path>
	<path class="st0" d="M459.772,335.154L459.772,335.154h-0.151c0,11.24-3.845,22.113-10.946,32.247
		c-9.983,14.423-26.554,27.292-47.854,37.941c-6.142,3.036-12.574,5.844-19.452,8.506c-14.497,5.623-30.622,10.21-47.854,13.684
		c-6.363,1.331-12.799,2.441-19.452,3.4c-15.239,2.224-31.288,3.628-47.858,3.996c-3.326,0.077-6.804,0.147-10.207,0.147
		c-3.106,0-6.209,0-9.245-0.147c-16.57-0.298-32.618-1.625-47.854-3.845c-6.583-0.963-13.09-2.07-19.378-3.326
		c-17.236-3.404-33.358-7.991-47.928-13.538c-6.807-2.588-13.313-5.4-19.378-8.355c-21.154-10.354-37.646-23.006-47.931-37.058
		c-7.69-10.502-11.906-21.893-11.906-33.651h-7.2h-0.045l0,0h-0.15v69.522c0,14.718,5.841,28.774,16.493,41.569
		c11.685,14.052,29.067,26.626,50.739,36.907c6.138,2.886,12.571,5.624,19.378,8.212c14.644,5.396,30.692,9.91,47.928,13.313
		c6.289,1.258,12.722,2.364,19.378,3.33c15.309,2.217,31.361,3.543,47.854,3.842c3.11,0.15,6.138,0.15,9.245,0.15
		c3.403,0,6.807-0.074,10.207-0.15c16.497-0.368,32.545-1.772,47.858-3.996c3.238-0.466,6.307-1.106,9.472-1.654
		c0.434-0.078,0.868-0.151,1.298-0.228c2.886-0.511,5.874-0.922,8.682-1.518c17.158-3.403,33.21-7.987,47.854-13.46
		c6.804-2.592,13.31-5.326,19.452-8.359c20.118-9.615,36.537-21.3,47.854-34.32c11.835-13.31,18.342-28.104,18.342-43.638v-69.522
		h-7.201H459.772z M266.206,489.655v-32.537c16.497-0.368,32.471-1.625,47.858-3.772v32.247
		c-14.946,2.282-30.846,3.679-47.622,4.054C266.363,489.648,266.286,489.652,266.206,489.655z M333.515,482.161v-31.997
		c16.938-3.106,32.986-7.396,47.854-12.645v30.247c-12.978,5.359-27.81,9.965-44.119,13.567
		C335.996,481.598,334.783,481.91,333.515,482.161z M400.821,429.753c16.864-7.473,31.729-16.42,44.01-26.554v1.478
		c0,15.467-10.844,31.247-30.193,45.002c-4.245,2.999-8.766,5.929-13.817,8.682V429.753z M112.146,459.004
		C83.42,443.4,67.174,423.746,67.174,404.677v-1.478c12.498,10.354,27.737,19.455,45.042,26.994v19.639L112.146,459.004z
		 M179.492,482.407c-17.813-3.625-33.854-8.502-47.898-14.27v-30.251c14.865,5.179,30.99,9.395,47.928,12.502v26.851
		L179.492,482.407z M246.754,489.659c-16.864-0.294-32.838-1.694-47.854-3.918v-32.247c15.382,2.07,31.434,3.326,47.854,3.625
		v32.103V489.659z" style="fill: rgb(0, 0, 0);"></path>
	<path class="st0" d="M204.395,73.11l-14.387-7.19c-1.816-0.911-4.216-1.367-6.646-1.367c-2.551,0-5.138,0.503-7.123,1.507
		c-3.87,1.937-4.014,5.021-0.287,6.884l9.462,4.731l4.804,2.488c-21.426,12.821-20.746,25.752-4.37,33.938
		c7.425,3.716,16.246,5.634,26.23,5.634c7.752,0,16.206-1.158,25.252-3.532c5.499-1.386,10.66-3.058,15.63-4.757l19.962,9.969
		l13.501,6.855c-6.932,2.382-14.074,3.522-20.947,3.522c-6.161,0-12.105-0.912-17.486-2.658c-1.794-0.489-3.573-0.714-5.278-0.714
		c-3.114,0-5.998,0.735-8.344,1.908c-5.212,2.606-7.314,7.314-1.58,10.207c0.72,0.357,1.723,0.691,2.536,0.978
		c9.222,3.128,19.18,4.713,29.413,4.713c13.526,0,27.55-2.765,41.046-8.366l14.39,7.194c1.816,0.908,4.213,1.36,6.646,1.36
		c2.558,0,5.158-0.504,7.168-1.507c3.87-1.934,3.966-5.018,0.239-6.885l-9.245-4.634l-4.97-2.581
		c24.388-14.203,23.797-27.16,5.036-36.544c-9.623-4.811-19.996-7.13-31.244-7.13c-9.594,0-19.819,1.687-30.758,4.958
		c-4.301,1.217-8.554,2.602-12.667,4.01l-16.014-8.006l-11.274-5.757c1.257-0.422,2.506-0.775,3.749-1.11
		c0.544-0.147,1.088-0.29,1.632-0.419c2.514-0.603,4.981-1.018,7.396-1.275c0.669-0.066,1.334-0.129,1.999-0.173
		c1.158-0.078,2.316-0.151,3.441-0.151c3.94,0,7.653,0.47,11.034,1.357c1.455,0.283,2.889,0.415,4.278,0.415
		c3.433,0,6.587-0.798,9.105-2.04c5.212-2.606,7.171-7.242,1.959-9.851c-1.003-0.496-2.102-0.904-3.536-1.19
		c-6.719-1.871-13.85-2.812-21.234-2.812C230.537,65.09,217.447,67.736,204.395,73.11z M233.547,101.861
		c-2.235,0.695-4.393,1.353-6.352,1.82c-5.135,1.437-9.498,2.206-13.243,2.206c-3.227,0-5.999-0.57-8.41-1.776
		c-6.885-3.44-5.925-8.961,3.014-14.868l14.695,7.351L233.547,101.861z M269.79,105.666c2.01-0.647,4.018-1.257,6.068-1.842
		c5.264-1.5,10.314-2.22,14.858-2.22c5.028,0,9.432,0.882,12.821,2.577c7.602,3.804,8.653,9.726-2.771,17.114l-18.103-9.064
		L269.79,105.666z" style="fill: rgb(0, 0, 0);"></path>
	<path class="st0" d="M466.965,102.879C464.15,45.891,370.618,0,256.002,0S47.854,45.891,45.038,102.879h-0.055v88.382
		c0,38.238,27.726,71.276,72.871,93.106c7.222,3.558,14.923,6.797,23.054,9.667c32.662,11.843,71.963,18.537,115.094,18.537
		c43.337,0,82.854-6.8,115.623-18.75c8.13-2.87,15.827-6.109,23.054-9.666c44.826-21.882,72.338-54.813,72.338-92.893v-88.382
		H466.965z M410.529,79.399c5.024,7.414,7.969,15.298,8.476,23.48c0.051,0.901,0.102,1.754,0.102,2.606
		c0,31.442-35.69,58.742-87.901,72.389c-7.329,1.912-15.03,3.558-22.995,4.886c-12.798,2.179-26.398,3.613-40.418,4.09
		c-3.878,0.158-7.811,0.214-11.792,0.214c-3.771,0-7.542-0.055-11.262-0.214c-14.019-0.478-27.619-1.804-40.418-3.984
		c-7.966-1.327-15.666-2.974-22.995-4.885c-52.478-13.546-88.434-40.948-88.434-72.496c0-0.853,0.052-1.706,0.107-2.606
		c0.646-10.421,5.337-20.334,13.151-29.427c14.846-17.103,41.047-31.284,73.724-40.043c22.742-6.029,48.651-9.454,76.127-9.454
		c27.443,0,53.327,3.418,76.05,9.436C368.453,43.142,396.946,59.606,410.529,79.399z M205.2,279.284
		c-19.246-2.779-37.382-7.109-53.721-12.998v-66.427c7.116,2.522,14.57,4.826,22.422,6.855c8.241,2.146,16.856,3.977,25.542,5.426
		c1.893,0.319,3.848,0.584,5.778,0.874v58.098L205.2,279.284z M228.302,215.61c5.08,0.394,10.215,0.72,15.434,0.897
		c3.878,0.166,8.075,0.235,12.258,0.235c4.396,0,8.726-0.07,12.998-0.242c4.179-0.14,8.38-0.397,12.582-0.706
		c0.162-0.004,0.313-0.015,0.474-0.018v66.17c-8.554,0.606-17.235,0.952-26.054,0.952c-9.38,0-18.625-0.36-27.693-1.04V215.61z
		 M305.124,279.478v-17.746l0.411-48.552c2.558-0.368,5.117-0.735,7.653-1.166c8.583-1.43,17.202-3.26,25.502-5.425
		c7.032-1.838,13.74-3.904,20.18-6.142v66.354c-15.486,5.422-32.413,9.443-50.254,12.134
		C307.439,279.104,306.311,279.321,305.124,279.478z M128.4,236.035l-0.066,20.371c-34.195-17.236-53.68-40.826-53.68-65.145
		v-46.189c10.854,17.713,29.196,33.11,53.746,45.142V236.035z M381.946,257.262v-66.262c25.377-12.163,44.292-27.862,55.393-45.961
		v46.222c0,21.411-15.137,42.307-42.014,58.734C391.139,252.532,386.691,254.962,381.946,257.262z" style="fill: rgb(0, 0, 0);"></path>
</g>
</svg>
