
<!--?xml version="1.0" encoding="utf-8"?-->
<!-- Generator: Adobe Illustrator 24.1.1, SVG Export Plug-In . SVG Version: 6.00 Build 0)  -->
<svg version="1.1" id="_x31_0" xmlns="http://www.w3.org/2000/svg" xmlns:xlink="http://www.w3.org/1999/xlink" x="0px" y="0px" viewBox="0 0 512 512" style="width: 256px; height: 256px; opacity: 1;" xml:space="preserve">
<style type="text/css">
	.st0{fill:#374149;}
</style>
<g>
	<path class="st0" d="M416.203,60.108C374.018,23.327,316.956,0.008,256.002,0C200.655,0.019,143.77,20.054,100.128,55.223
		C57.282,89.727,27.242,139.32,25.374,198.621c-9.074,8.542-14.789,20.608-14.789,33.981c0.008,16.831,9.038,31.423,22.366,39.646
		c-0.011,0.235-0.042,0.423-0.042,0.681v11.597c0,6.184,1.542,11.981,4.054,17.184c-6.403,7.07-10.977,15.954-12.226,26.082
		c-0.274,2.107-0.404,4.238-0.404,6.346c-0.004,15.112,7.004,28.904,18.4,37.924c-0.254,2.011-0.53,4.019-0.53,6.115
		c0,5.219,0.754,10.458,2.273,15.531l0.054,0.18l0.012,0.031l8.581,27.954c16.481,53.801,65.566,90.139,121.893,90.128h161.974
		c56.323,0.011,105.405-36.338,121.897-90.128l8.631-28.119c1.55-5.034,2.334-10.25,2.334-15.45c0-2.15-0.204-4.239-0.477-6.297
		c11.077-8.926,18.285-22.55,18.285-37.919c0-12.493-4.838-23.866-12.589-32.489c2.489-5.158,4.027-10.908,4.027-17.073v-11.597
		c0-0.258-0.03-0.446-0.042-0.681c13.323-8.223,22.358-22.815,22.362-39.646c0-13.438-5.773-25.511-14.866-34
		C484.677,145.382,457.534,96.147,416.203,60.108z M365.714,358.364l-13.419,10.454c-5.531,4.315-12.138,6.473-18.816,6.473
		c-6.607,0-13.284-2.158-18.811-6.473l-13.419-10.454l-12.408-9.707H73.193c-1.081,0-2.162-0.138-3.169-0.339
		c-2.5-0.538-4.793-1.754-6.612-3.438c-3.373-3.034-5.327-7.688-4.65-12.746c0.942-7.285,7.55-12.542,14.969-12.542H438.88
		c8.023,0,14.497,6.473,14.497,14.496c0,4.246-1.819,8.092-4.719,10.792c-2.562,2.358-6,3.778-9.778,3.778h-60.758L365.714,358.364z
		 M127.139,304.487c0-3.508,2.831-6.342,6.339-6.342c3.503,0,6.403,2.834,6.403,6.342c0,0.538-0.065,1.146-0.269,1.615
		c-0.673,2.769-3.17,4.788-6.134,4.788c-2.97,0-5.397-2.019-6.139-4.788C127.205,305.633,127.139,305.026,127.139,304.487z
		 M190.386,284.929c0-2.358,1.284-4.381,3.169-5.458c0.946-0.542,2.027-0.881,3.174-0.881c2.358,0,4.45,1.281,5.526,3.234
		c0.542,0.946,0.812,1.958,0.812,3.104c0,3.508-2.835,6.342-6.338,6.342C193.221,291.271,190.386,288.437,190.386,284.929z
		 M277.31,275.829c0-1.415,0.404-2.7,1.216-3.711c1.146-1.685,2.965-2.696,5.122-2.696c2.158,0,4.046,1.011,5.193,2.696
		c0.742,1.011,1.215,2.296,1.215,3.711c0,3.504-2.9,6.338-6.408,6.338C280.141,282.167,277.31,279.333,277.31,275.829z
		 M317.634,298.145c0-2.358,1.35-4.446,3.307-5.527c0.942-0.538,1.954-0.811,3.1-0.811c1.146,0,2.158,0.273,3.1,0.811
		c1.958,1.081,3.238,3.17,3.238,5.527c0,3.511-2.83,6.342-6.338,6.342C320.534,304.487,317.634,301.656,317.634,298.145z
		 M356.342,275.829c0-1.415,0.473-2.7,1.215-3.711c1.146-1.685,3.03-2.696,5.192-2.696c2.158,0,3.977,1.011,5.123,2.696
		c0.808,1.011,1.215,2.296,1.215,3.711c0,3.504-2.83,6.338-6.338,6.338C359.242,282.167,356.342,279.333,356.342,275.829z
		 M403.546,261.667c0-1.081,0.269-2.158,0.807-3.034c1.012-2.023,3.17-3.373,5.597-3.373c2.43,0,4.519,1.35,5.6,3.373
		c0.469,0.877,0.738,1.954,0.738,3.034c0,3.504-2.831,6.338-6.338,6.338C406.442,268.006,403.546,265.171,403.546,261.667z
		 M430.384,290.66c0-3.574,2.831-6.404,6.404-6.404c3.508,0,6.338,2.83,6.338,6.404c0,0.742-0.134,1.488-0.404,2.158
		c-0.877,2.43-3.169,4.181-5.934,4.181c-2.9,0-5.262-1.819-6.07-4.381C430.518,292.01,430.384,291.337,430.384,290.66z
		 M76.697,282.167c-3.504,0-6.338-2.834-6.338-6.338c0-3.577,2.834-6.407,6.338-6.407c1.146,0,2.158,0.269,3.104,0.811
		c0,0,0,0,0.066,0.066c0.877,0.473,1.619,1.211,2.158,2.088c0,0,0.069,0,0.069,0.07c0.608,0.942,0.942,2.088,0.942,3.373
		C83.035,279.333,80.205,282.167,76.697,282.167z M76.562,375.626h202.97l18.546,14.435c10.046,7.888,22.658,12.204,35.4,12.204
		c12.816,0,25.354-4.316,35.47-12.204l18.478-14.435h48.015c0.27,2.631,0.066,5.397-0.746,8.097l-8.562,28.119
		c-12.001,39.108-48.147,65.882-89.147,65.882H175.013c-40.931,0-77.142-26.774-89.078-65.882l-8.63-28.119
		C76.493,381.022,76.293,378.257,76.562,375.626z M456.142,244.944c-0.538,0.134-1.011,0.2-1.55,0.2h-7.35H238.537
		c-1.819,0-3.574,0.404-5.193,1.146c-1.35,0.608-2.566,1.485-3.642,2.496l-16.185,16.046c-2.492,2.43-5.662,3.642-8.9,3.642
		c-3.169,0-6.338-1.212-8.83-3.642l-7.893-7.819c-2.426-2.431-5.596-3.642-8.83-3.642c-3.17,0-6.338,1.211-8.838,3.642l-7.885,7.819
		c-2.431,2.43-5.67,3.642-8.838,3.642c-3.17,0-6.404-1.212-8.831-3.642l-7.892-7.819c-2.423-2.431-5.662-3.642-8.831-3.642
		c-3.238,0-6.408,1.211-8.834,3.642l-7.889,7.819c-2.496,2.43-5.666,3.642-8.834,3.642c-3.238,0-6.408-1.212-8.835-3.642
		l-16.25-16.046c-1.081-1.077-2.358-1.888-3.712-2.496c-1.615-0.742-3.369-1.146-5.123-1.146h-3.638h-7.354
		c-0.538,0-1.077-0.066-1.615-0.2h-0.07c-5.6-0.677-10.115-5.127-10.723-10.723c-0.13-0.538-0.2-1.077-0.2-1.619
		c0-6.946,5.662-12.542,12.608-12.542h397.114c6.877,0,12.542,5.596,12.542,12.542c0,0.542-0.07,1.146-0.204,1.685
		c-0.673,5.6-5.127,9.981-10.719,10.658H456.142z M59.974,193.086c7.15-91.439,100.005-158.806,196.029-158.806
		c95.889,0,188.609,70.535,196.024,158.806H59.974z" style="fill: rgb(0, 0, 0);"></path>
	<path class="st0" d="M276.841,97.331c-3.508,0-6.408,2.831-6.408,6.339c0,3.577,2.9,6.407,6.408,6.407
		c3.504,0,6.334-2.83,6.334-6.407C283.175,100.162,280.345,97.331,276.841,97.331z" style="fill: rgb(0, 0, 0);"></path>
	<path class="st0" d="M163.755,88.701c-3.508,0-6.338,2.83-6.338,6.404c0,3.507,2.83,6.338,6.338,6.338
		c3.504,0,6.338-2.831,6.338-6.338C170.094,91.531,167.259,88.701,163.755,88.701z" style="fill: rgb(0, 0, 0);"></path>
	<path class="st0" d="M353.576,109.266c-3.504,0-6.404,2.834-6.404,6.338c0,3.508,2.9,6.338,6.404,6.338
		c3.507,0,6.338-2.83,6.338-6.338C359.914,112.101,357.083,109.266,353.576,109.266z" style="fill: rgb(0, 0, 0);"></path>
	<path class="st0" d="M224.714,59.908c-3.574,0-6.408,2.831-6.408,6.338c0,3.508,2.834,6.338,6.408,6.338
		c3.504,0,6.338-2.83,6.338-6.338C231.052,62.739,228.218,59.908,224.714,59.908z" style="fill: rgb(0, 0, 0);"></path>
	<path class="st0" d="M209.878,115.605c-3.507,0-6.338,2.834-6.338,6.338c0,3.508,2.831,6.408,6.338,6.408
		c3.574,0,6.404-2.9,6.404-6.408C216.282,118.439,213.452,115.605,209.878,115.605z" style="fill: rgb(0, 0, 0);"></path>
	<path class="st0" d="M317.634,69.012c-3.504,0-6.339,2.831-6.339,6.404c0,3.508,2.835,6.338,6.339,6.338
		c3.507,0,6.407-2.83,6.407-6.338C324.041,71.843,321.141,69.012,317.634,69.012z" style="fill: rgb(0, 0, 0);"></path>
</g>
</svg>
