<svg version="1.1" id="_x31_0" xmlns="http://www.w3.org/2000/svg" xmlns:xlink="http://www.w3.org/1999/xlink" x="0px" y="0px" viewBox="0 0 512 512" style="width: 256px; height: 256px; opacity: 1;" xml:space="preserve">
<style type="text/css">
	.st0{fill:#000000;}
</style>
<g>
	<path class="st0" d="M510.11,127.011l-76.922-77.026L385.026,2.023c-2.525-2.518-6.612-2.514-9.133,0.007L52.193,325.731
		c-0.581,0.581-1.209,1.21-1.739,1.842l-7.253,7.256c-3.942,3.942-6.832,8.831-8.462,14.246L1.72,461.372
		c-4.256,13.822-0.471,28.754,9.782,39.007c10.04,10.041,24.71,13.881,38.485,9.99l113.134-32.914
		c5.414-1.63,10.406-4.626,14.402-8.618l332.582-332.685C512.63,133.627,512.63,129.536,510.11,127.011z M31.099,471.963
		l5.584-17.69l7.834,7.68l2.626,2.647l-9.686,4.515L31.099,471.963z M105.159,375.045l3.177-0.192l-0.365,5.713l-1.43,22.26
		l-0.212,2.969h0.02l-0.008,0.161l25.39-1.731l4.979-0.33l0.542-0.019l-0.42,5.45l-1.539,22.578l-0.201,2.65h0.016l-0.008,0.162
		l25.39-1.63l3.326-0.212l2.289-0.036l-3.404,3.405l-8.992,9.094l-83.434,24.133l-27.97-27.762l24.554-83.221l8.988-8.992
		l0.004-0.106l3.994-3.993l-1.327,28.374l-0.154,2.906h0.016l-0.008,0.161L105.159,375.045z M152.185,417.716l2.101-30.895
		l-27.69,1.834l-3.271,0.201l1.763-27.408l0.243-3.432h-0.023l0.012-0.161l-11.674,0.734l-5.151,0.318h-0.102l-12.675,0.75
		l-1.52,0.071l2.207-30.789v-0.102l76.546-76.546L380.507,44.732l21.082,20.976l7.939,7.936l-0.055,0.055l57.75,57.749l0.134,0.134
		L259.802,339.14l-76.601,76.597l-27.558,1.774L152.185,417.716z"></path>
	<polygon class="st0" points="396.677,90.823 396.677,90.823 396.791,90.709 391.105,85.019 139.011,337.118 144.697,342.803 
		396.139,91.361 	"></polygon>
	
		<rect x="119.968" y="240.221" transform="matrix(0.7071 -0.7071 0.7071 0.7071 -85.3553 282.4165)" class="st0" width="356.52" height="8.041"></rect>
</g>
</svg>