<svg version="1.1" id="_x31_0" xmlns="http://www.w3.org/2000/svg" xmlns:xlink="http://www.w3.org/1999/xlink" x="0px" y="0px" viewBox="0 0 512 512" style="width: 256px; height: 256px; opacity: 1;" xml:space="preserve">
<style type="text/css">
	.st0{fill:#374149;}
</style>
<g>
	<path class="st0" d="M64.481,171.441l-0.238,76.962c20.078-8.723,45.438-13.52,71.84-13.52c27.598,0,53.918,5.199,74.48,14.641
		l0.078-76.961c-21.442-8.562-47.52-13.199-74.558-13.199C110.32,159.364,85.359,163.602,64.481,171.441z" style="fill: rgb(0, 0, 0);"></path>
	<path class="st0" d="M64.16,282.723l-0.078,17.359c20.078-8.878,45.519-13.602,72-13.602c27.598,0,53.918,5.122,74.48,14.641
		v-17.519c-21.442-8.481-47.523-13.122-74.48-13.122C110.16,270.48,85.121,274.723,64.16,282.723z" style="fill: rgb(0, 0, 0);"></path>
	<path class="st0" d="M301.442,172.563V190c20.398-9.516,46.878-14.637,74.48-14.637c26.481,0,51.68,4.718,71.84,13.519
		l0.078-17.359c-20.957-7.922-46-12.16-71.918-12.16C348.961,159.364,322.883,164,301.442,172.563z" style="fill: rgb(0, 0, 0);"></path>
	<path class="st0" d="M301.359,232.164v17.438c20.481-9.52,46.961-14.719,74.562-14.719c26.398,0,51.598,4.719,71.68,13.438v-17.278
		c-20.883-7.839-45.84-12.16-71.68-12.16C348.961,218.883,322.801,223.602,301.359,232.164z" style="fill: rgb(0, 0, 0);"></path>
	<path class="st0" d="M301.359,291.68l-0.078,16.164v1.36c20.48-9.524,46.961-14.719,74.64-14.719
		c26.321,0,51.36,4.637,71.438,13.359l0.082-17.281c-20.879-7.84-45.762-12.078-71.52-12.078
		C348.961,278.484,322.801,283.121,301.359,291.68z" style="fill: rgb(0, 0, 0);"></path>
	<path class="st0" d="M467.922,100.484c-24.882-12.961-57.519-20.164-92-20.164c-28.48,0-55.762,4.961-78.402,14
		c-0.32,0.164-0.636,0.242-0.957,0.402c-4.402,1.762-8.562,3.68-12.562,5.762c-11.519,5.918-20.879,12.957-28,20.719
		c-7.117-7.762-16.481-14.801-28-20.719c-4.481-2.32-9.282-4.484-14.238-6.402c-0.402-0.16-0.801-0.32-1.199-0.48
		c-22.242-8.641-48.801-13.282-76.48-13.282c-34.481,0-67.122,7.203-92,20.164C15.68,115.281,0,136.32,0,159.68v223.363
		c0,10.161,8.242,18.321,18.32,18.321h42.161c2.48,0,4.961-0.559,7.199-1.52c17.762-7.523,41.519-12.64,68.402-12.64
		c47.199,0,84.718,15.601,96.957,32.797c0.32,0.402,0.641,0.804,0.961,1.281c5.359,6.562,13.442,10.398,22,10.398
		c8.562,0,16.641-3.836,22-10.398c0.32-0.477,0.641-0.878,0.961-1.281c12.238-17.196,49.758-32.797,96.961-32.797
		c27.039,0,50.797,5.117,68.481,12.64c2.316,0.961,4.797,1.52,7.278,1.52h42c10.16,0,18.32-8.16,18.32-18.321V159.68
		C512,136.32,496.32,115.281,467.922,100.484z M237.282,338.563v22.558c-2.879-1.84-6-3.598-9.282-5.278
		c-15.68-8.164-34.398-14-54.641-17.281c-12-1.84-24.558-2.883-37.277-2.883c-12.161,0-24.161,0.961-35.68,2.641
		c-20.961,3.203-40.242,9.121-56.32,17.523c-3.199,1.68-6.321,3.438-9.282,5.278V159.68c0-10.718,11.199-22,29.84-30.558
		c18-8.317,42.878-13.918,71.442-13.918c30.16,0,56.398,6.398,74.558,15.437c16.718,8.321,26.641,19.039,26.641,29.039V338.563z
		 M477.199,361.121c-2.957-1.84-6.078-3.598-9.278-5.278c-14.48-7.523-31.602-13.121-50.242-16.48
		c-13.278-2.402-27.36-3.684-41.758-3.684c-13.839,0-27.359,1.203-40.242,3.442c-19.199,3.282-36.879,8.961-51.68,16.722
		c-3.282,1.68-6.398,3.438-9.282,5.278v-22V159.68c0-10.078,9.922-20.718,26.723-29.117c18.16-9.039,44.32-15.359,74.48-15.359
		c28.879,0,54,5.758,72.078,14.16c18.242,8.558,29.199,19.758,29.199,30.316V361.121z" style="fill: rgb(0, 0, 0);"></path>
</g>
</svg>