<svg version="1.1" id="_x31_0" xmlns="http://www.w3.org/2000/svg" xmlns:xlink="http://www.w3.org/1999/xlink" x="0px" y="0px" viewBox="0 0 512 512" style="width: 256px; height: 256px; opacity: 1;" xml:space="preserve">
<style type="text/css">
	.st0{fill:#374149;}
</style>
<g>
	<path class="st0" d="M38.632,391.25c44.256,71.026,120.461,116.043,203.834,120.402C247.074,511.883,251.61,512,256,512
		c13,0,26.011-0.984,38.671-2.922c47.104-7.114,91.274-27.343,127.671-58.494c8.762-7.484,17.172-15.73,24.984-24.488
		c19.64-22.124,35.139-47.107,46.123-74.314c3.102-7.645,5.894-15.679,8.274-23.831c6.808-23.226,10.269-47.452,10.269-71.959
		c0-6.562-0.258-13.273-0.766-19.956v-0.082l-0.121-1.453c-1.285-15.469-4.008-30.902-8.105-45.948v-0.191l-1.41-4.801
		c-15.242-51.791-45.963-96.735-88.841-129.977c-14.992-11.621-31.257-21.566-48.338-29.558C330.358,8.082,293.878,0,256,0
		c-33.73,0-66.518,6.465-97.462,19.218c-11.945,4.914-23.702,10.843-34.917,17.62C75.455,66.006,37.726,110.864,17.359,163.174
		c-3,7.703-5.68,15.766-7.973,23.949c-6.226,22.374-9.378,45.53-9.378,68.869c0,29.655,5.027,58.717,14.949,86.365
		C21.05,359.376,29.019,375.832,38.632,391.25z M351.9,58.557c42.229,55.874,58.041,120.95,47.045,193.58
		c-18.19-9.312-37.326-31.753-64.115-63.142c-18.265-21.39-40.967-48.018-69.646-77.638c-29.081-30.062-60.424-50.206-93.466-60.154
		c25.995-10.71,54.451-16.609,84.282-16.609c33.503,0,65.287,7.445,93.751,20.765v0.336L351.9,58.557z M466.217,325.47
		c-0.266,0.817-0.528,1.637-0.794,2.457c0.266-0.816,0.528-1.64,0.79-2.457H466.217z M244.274,477.106
		c-74.438-3.894-139.14-44.542-176.287-104.165c23.698,15.706,46.225,25.671,67.275,29.726c11.73,2.254,23.281,3.219,34.62,3.219
		c36.342,0,70.541-9.894,101.575-18.871c27.499-7.96,53.814-15.585,78.338-15.585c2.523,0,5.023,0.082,7.507,0.25
		c-26.186,44.222-63.142,79.111-110.059,103.86L244.274,477.106z M379.367,376.07c12.473,4.848,24.59,16.238,20.57,47.593
		l-0.086,0.636c-30.682,26.262-68.65,44.28-110.418,50.585C326.924,449.033,357.071,415.933,379.367,376.07z M389.176,357.114
		c4.262-9.008,8.187-18.39,11.722-28.019c21.159,4.066,41.749,7.375,60.47,9.734c0.004-0.008,0.008-0.02,0.012-0.027l0,0
		c-0.004,0.007-0.008,0.019-0.012,0.031c-9.57,23.714-23.148,45.409-39.862,64.24C419.124,381.098,408.078,365.337,389.176,357.114z
		 M476.634,237.391c0.496,6.125,0.762,12.324,0.762,18.601c0,21.621-3.09,42.51-8.879,62.268
		c-14.394-1.738-34.998-4.676-60.779-9.543c3.129-10.175,5.793-20.284,7.977-30.253c1.406,0.09,2.789,0.141,4.175,0.141
		c10.766,0,20.734-2.879,29.742-8.633C460.541,263.023,469.564,252.137,476.634,237.391z M476.634,237.364c0,0,0,0.004,0,0.008l0,0
		C476.634,237.368,476.634,237.368,476.634,237.364z M468.408,193.346l-0.852,3.855c-6.003,27.433-16.167,46.386-29.366,54.791
		c-5.554,3.535-11.617,5.297-18.382,5.297c-0.031,0-0.063,0-0.098,0c11.71-74.994-5.258-133.832-28.16-176.366
		c36.281,28.124,63.573,67.264,76.858,112.407V193.346z M394.926,273.738c-2.214,10.11-4.953,20.414-8.203,30.788
		C311.218,288.714,175.737,252.114,49.6,175.725c-0.273,0.695-0.507,1.41-0.77,2.114l0,0c0.258-0.703,0.493-1.418,0.762-2.114
		c17.823-45.768,50.404-84.142,91.922-109.278l1.282,0.172c37.803,5.191,73.834,25.23,107.074,59.553
		c28.194,29.14,50.67,55.486,68.737,76.662C349.29,238.79,370.731,263.914,394.926,273.738z M42.702,196.439
		c126.156,75.451,260.464,112.176,337.036,128.394c-3.484,9.183-7.335,18.082-11.526,26.613c-6.184-0.93-12.386-1.352-18.613-1.352
		c-27.261,0-55.05,8.043-84.056,16.434c-30.839,8.914-62.479,18.07-95.47,18.07c-10.132,0-20.39-0.863-30.796-2.863
		c-26.593-5.113-56.564-21.546-89.094-48.838l-2.664-2.218c-8.367-23.328-12.918-48.483-12.918-74.686
		C34.601,235.36,37.425,215.392,42.702,196.439z" style="fill: rgb(0, 0, 0);"></path>
</g>
</svg>
