<svg version="1.1" id="_x31_0" xmlns="http://www.w3.org/2000/svg" xmlns:xlink="http://www.w3.org/1999/xlink" x="0px" y="0px" viewBox="0 0 512 512" style="width: 256px; height: 256px; opacity: 1;" xml:space="preserve">
<g>
	<path fill="#000" class="st0" d="M509.106,193.516c-7.876-24.237-30.293-40.522-55.778-40.522H345.194L311.777,50.152
		c-7.872-24.24-30.289-40.526-55.778-40.526c-25.485,0-47.902,16.286-55.778,40.526l-33.414,102.842H58.674
		c-25.489,0-47.902,16.286-55.778,40.522c-7.88,24.24,0.68,50.59,21.301,65.574l87.484,63.56L78.267,425.495
		c-5.879,18.09-2.91,37.203,8.147,52.425c11.127,15.315,28.966,24.454,47.714,24.454c12.316,0,24.206-3.91,34.387-11.312
		l87.484-63.563l87.484,63.563c10.185,7.402,22.075,11.312,34.391,11.312c18.748,0,36.586-9.146,47.71-24.454
		c11.061-15.222,14.03-34.334,8.15-52.429L400.322,322.65l87.48-63.56C508.422,244.105,516.982,217.756,509.106,193.516z
		 M131.019,467.551c-1.737-0.233-3.433-0.642-5.06-1.241l0,0c-3.455-1.27-6.602-3.312-9.181-5.928c0,0-0.007-0.011-0.015-0.019
		c-5.127-5.218-7.974-12.722-6.414-20.962c0.012-0.068,0.03-0.136,0.042-0.203c0.199-0.997,0.451-2,0.778-3.015l35.786-110.13
		c3.218-9.91-0.309-20.767-8.737-26.887l-93.684-68.063c-18.849-13.699-9.162-43.511,14.139-43.511H174.47
		c10.421,0,19.654-6.706,22.872-16.617L233.127,60.84c3.598-11.075,13.237-16.616,22.872-16.616c9.639,0,19.274,5.541,22.876,16.616
		l35.782,110.134c3.222,9.91,12.454,16.617,22.875,16.617h115.797c23.3,0,32.988,29.812,14.138,43.511l-93.683,68.063
		c-8.429,6.12-11.958,16.977-8.737,26.887l35.782,110.13c0.331,1.015,0.582,2.018,0.782,3.015c0.011,0.067,0.026,0.135,0.041,0.203
		c1.557,8.225-1.278,15.718-6.39,20.935c-0.019,0.015-0.03,0.034-0.05,0.053c-3.789,3.846-8.819,6.429-14.229,7.162
		c-0.206,0.026-0.41,0.053-0.62,0.075c-0.824,0.09-1.654,0.15-2.489,0.15c-4.703,0-9.564-1.436-14.053-4.703l-93.683-68.066
		c-4.214-3.061-9.177-4.59-14.139-4.59c-4.958,0-9.921,1.53-14.135,4.59l-93.683,68.066c-4.489,3.263-9.35,4.703-14.053,4.703
		c-0.838,0-1.666-0.06-2.493-0.15C131.429,467.604,131.222,467.577,131.019,467.551z"></path>
</g>
</svg>