
<!--?xml version="1.0" encoding="utf-8"?-->
<!-- Generator: Adobe Illustrator 24.1.1, SVG Export Plug-In . SVG Version: 6.00 Build 0)  -->
<svg version="1.1" id="_x31_0" xmlns="http://www.w3.org/2000/svg" xmlns:xlink="http://www.w3.org/1999/xlink" x="0px" y="0px" viewBox="0 0 512 512" style="width: 256px; height: 256px; opacity: 1;" xml:space="preserve">
<style type="text/css">
	.st0{fill:#000;}
</style>
<g>
	<path class="st0" d="M93.868,391.797l18.062,74.859h-0.024l7.993,33.274c0.007,0.098,0.058,0.184,0.07,0.282
		c0.027,0.133,0.042,0.266,0.086,0.398c-0.07,0.074-0.07,0.074,0,0.144c0.058,0.508,0.282,0.95,0.398,1.438
		c0.176,0.664,0.274,1.352,0.547,1.969c0.515,1.199,1.187,2.313,2.031,3.27l0.011,0.012c0,0,0,0.004,0.004,0.004
		c0.008,0.011,0.016,0.015,0.027,0.027l1.043,1.046c0.114,0.114,0.258,0.188,0.383,0.29c1.019,0.867,2.16,1.582,3.418,2.106
		c0.039,0.019,0.074,0.054,0.118,0.07c0.422,0.184,0.867,0.294,1.304,0.418c0.473,0.137,0.95,0.242,1.442,0.328
		c0.68,0.129,1.356,0.27,2.114,0.27h246.207c0.582,0,1.164-0.074,1.742-0.145c0.297-0.038,0.562-0.121,0.844-0.183
		c0.222-0.047,0.442-0.09,0.66-0.145c0.051-0.015,0.114-0.023,0.164-0.035c0.653-0.144,1.234-0.363,1.817-0.652
		c0.015-0.008,0.027-0.02,0.043-0.023c0.406-0.184,0.785-0.399,1.168-0.622c0.007-0.004,0.011-0.004,0.019-0.008
		c0.05-0.027,0.09-0.062,0.141-0.09c1.316-0.778,2.527-1.718,3.496-2.89c0.008-0.012,0.011-0.027,0.019-0.039
		c0.274-0.282,0.489-0.625,0.699-0.973c0.215-0.363,0.504-0.722,0.649-1.086c0.285-0.356,0.426-0.778,0.57-1.137
		c0.441-1.047,0.687-2.191,0.847-3.363h0.035l0.07-0.363c0.074-0.07,0.074-0.215,0.074-0.29l12.34-51.39l13.652-56.75
		c-0.012,0.003-0.019,0.003-0.027,0.007l0.004-0.027h0.074c42.293-12.258,74.574-56.293,74.574-107.145
		c0-68.476-24.449-126.148-70.656-166.843c-23.942-21.11-53.32-36.852-86.11-46.426c6.387-4.864,12.695-10.375,18.57-16.25
		c3.047-3.121,6.168-6.527,9.723-10.809c0.363-0.438,0.941-1.09,1.449-1.742c0.726-0.946,1.309-1.668,2.031-2.321l0.219-0.218
		l0.218-0.29l0.363-0.437c1.086-1.234,2.031-2.176,2.828-2.973c2.902-2.539,5.004-5.73,6.094-9.286
		c3.41-11.027-2.683-22.633-13.492-26.117C361.91,0.289,359.805,0,357.773,0l-1.812,0.074c-8.34,0.722-15.45,6.382-17.988,14.434
		l-0.145,0.438v0.144c-0.653,1.668-1.672,3.555-3.195,5.512l-1.086,1.449c-0.652,0.875-1.305,1.672-1.957,2.399l-0.145,0.144
		l-0.148,0.215c-1.23,1.378-2.321,2.683-3.481,3.847l-0.144,0.141l-0.145,0.149c-4.789,5.074-10.375,10.082-16.688,14.797
		c-0.797,0.582-1.594,1.234-2.465,1.742h-0.07c-0.219-0.363-0.512-0.797-0.801-1.16c-22.126-29.378-63.906-35.328-93.36-13.203
		c-12.55,9.504-20.82,22.489-24.449,36.633c-38.301,8.997-72.469,26.043-99.742,50.055c-46.281,40.695-70.73,98.367-70.73,166.843
		C19.223,335.434,51.578,379.539,93.868,391.797z M249.617,60.282c-1.742,2.687-4.5,4.859-7.91,6.094
		c-6.598,2.465-13.636,0.434-17.262-4.496c-0.656-0.871-1.234-1.962-1.668-3.047c-2.542-7.035,1.738-15.09,9.649-17.992
		c7.906-2.828,16.39,0.508,18.93,7.543C252.879,52.375,252.082,56.726,249.617,60.282z M342.324,34.238
		c0.871-1.016,1.742-2.102,2.61-3.262l1.234-1.524c2.613-3.554,4.496-6.89,5.586-10.301l0.074-0.289
		c0.722-2.398,2.902-4.137,5.442-4.355h0.503l1.817,0.289c3.336,1.02,5.149,4.57,4.133,7.836c-0.363,1.09-1.012,2.031-1.886,2.828
		c-1.52,1.305-2.754,2.758-4.063,4.282l-0.434,0.438c-0.941,1.011-1.812,2.027-2.683,3.117l-1.523,1.813
		c-3.266,3.847-6.094,6.965-8.852,9.793c-6.308,6.313-12.984,12.043-19.875,17.047c-1.957,1.453-3.988,2.902-6.094,4.355
		c-0.726-2.758-1.668-5.442-2.754-8.054c1.375-0.942,2.683-1.958,3.988-2.899c6.965-5.222,13.203-10.808,18.57-16.468
		c1.454-1.45,2.684-2.902,4.062-4.5L342.324,34.238z M319.692,96.918c83.566,21.18,144.066,85.962,144.066,187.734
		c0,29.309-15.016,57.383-37.07,71.602c-2.754,1.887-5.656,3.481-8.629,4.786c-2.614,1.164-5.371,2.176-8.125,2.977
		c-4.934,1.449-10.082,2.175-15.379,2.175c-9.141,0-17.844-1.742-25.824-5.008c-9.938-3.914-18.715-10.152-25.68-17.988
		c-11.027-12.262-17.774-28.508-17.774-46.281c0,33.003-23.14,60.714-54.117,67.609c-4.859,1.086-9.938,1.668-15.16,1.668
		c-5.223,0-10.301-0.582-15.161-1.668c-30.976-6.965-54.042-34.606-54.042-67.609c0,17.773-6.75,34.019-17.774,46.281
		c-7.035,7.836-15.817,14-25.68,17.988c-7.98,3.266-16.687,5.008-25.828,5.008c-5.293,0-10.445-0.726-15.375-2.175
		c-2.832-0.801-5.515-1.813-8.199-3.047c-2.972-1.309-5.874-2.902-8.633-4.715c-22.05-14.293-37.066-42.293-37.066-71.602
		c0-100.394,58.829-164.812,140.727-186.867c1.89,9.43,5.878,18.5,11.972,26.696c22.126,29.378,63.91,35.328,93.36,13.202
		C308.086,127.309,316.719,112.656,319.692,96.918z M183.242,453.313h-30.469l-6.382-62.458
		c10.515-3.195,20.238-8.199,28.942-14.507L183.242,453.313z M240.84,393.973c4.93,0.797,10.012,1.234,15.161,1.234
		c5.152,0,10.226-0.438,15.16-1.234v59.34H240.84V393.973z M336.664,376.274c7.984,5.878,16.906,10.519,26.48,13.785
		c0.363,0.145,0.797,0.215,1.161,0.359c0.434,0.149,0.941,0.294,1.378,0.438l-6.457,62.458H347.91h-19.152L336.664,376.274z"></path>
	<path class="st0" d="M281.899,210.953c-3.34-0.656-6.602,1.958-7.402,5.801c-0.723,3.848,1.378,7.473,4.718,8.126
		c3.336,0.652,6.672-1.958,7.398-5.801C287.41,215.23,285.308,211.602,281.899,210.953z"></path>
	<path class="st0" d="M268.621,185.344c-2.102,0.363-3.481,2.683-3.047,5.078c0.438,2.465,2.469,4.207,4.645,3.844
		c2.102-0.363,3.481-2.683,3.047-5.149C272.828,186.649,270.801,184.981,268.621,185.344z"></path>
	<path class="st0" d="M178.816,151.977c-2.687-0.801-5.586,1.086-6.527,4.133c-1.019,3.121,0.434,6.312,3.117,7.109
		c2.684,0.871,5.657-1.015,6.602-4.133C182.949,156.035,181.571,152.848,178.816,151.977z"></path>
	<path class="st0" d="M234.961,172.942c-2.176,2.32-2.321,5.656-0.363,7.542c1.961,1.887,5.297,1.598,7.473-0.652
		c2.179-2.324,2.394-5.66,0.363-7.547C240.476,170.398,237.14,170.691,234.961,172.942z"></path>
	<path class="st0" d="M317.152,182.516c4.137-1.598,6.383-5.731,5.004-9.141c-1.375-3.41-5.875-4.863-9.938-3.192
		c-4.133,1.668-6.382,5.801-5.004,9.211C308.594,182.805,313.016,184.183,317.152,182.516z"></path>
	<path class="st0" d="M207.688,194.629c-3.121,0.363-5.442,3.554-5.078,7.184c0.364,3.625,3.192,6.308,6.383,6.019
		c3.121-0.289,5.442-3.484,5.078-7.11C213.707,197.023,210.879,194.34,207.688,194.629z"></path>
</g>
</svg>
